<svg xmlns="http://www.w3.org/2000/svg" viewBox="0 0 1024 1024">
  <defs>
    <linearGradient id="bg" x1="0" y1="0" x2="0" y2="1">
      <stop offset="0" stop-color="#0A84FF"/>
      <stop offset="1" stop-color="#535CFF"/>
    </linearGradient>
    <filter id="shadow" x="-20%" y="-20%" width="140%" height="150%">
      <feDropShadow dx="0" dy="24" stdDeviation="28" flood-color="#000" flood-opacity=".24"/>
    </filter>
  </defs>
  <rect x="80" y="80" width="864" height="864" rx="210" fill="url(#bg)" filter="url(#shadow)"/>
  <rect x="190" y="245" width="644" height="510" rx="105" fill="#fff" fill-opacity=".96"/>
  <rect x="258" y="340" width="508" height="100" rx="44" fill="#F0F7FF"/>
  <rect x="315" y="373" width="155" height="34" rx="17" fill="#1464DC"/>
  <rect x="510" y="373" width="198" height="34" rx="17" fill="#2879E6"/>
  <rect x="258" y="560" width="508" height="100" rx="44" fill="#F0F7FF"/>
  <rect x="315" y="593" width="195" height="34" rx="17" fill="#5864FF"/>
  <rect x="550" y="593" width="158" height="34" rx="17" fill="#5864FF"/>
  <path d="M512 462v70m0-22-88 52m88-52 88 52" fill="none" stroke="#3C49D2" stroke-width="36" stroke-linecap="round" stroke-linejoin="round"/>
  <path d="M414 553l41-23-3 45zm196 0-41-23 3 45z" fill="#3C49D2"/>
</svg>
